BERNARD ALLISON KENTUCKY FRIED BLUES
Studio Music Video Distributors
Original Year 2003
Format:Avi

Critics seldom agree upon anything so much as they do with Bernard Allison. The son of the blues legend Luther Allison is regarded as one of the most important and creative representatives of 21st century blues. This live concert was recorded in August 1999 at the W.C. Handy Festival in Henderson, Kentucky. Songs include Buzz Me (Instrumental Introduction), Going Down, Bad Love, Life Is A Bitch. Midnight Creeper, Leave my Girl Alone, and Good Time Woman.
This live performance by Bernard Allison perfectly illustrates why he has quickly established himself as one of the most important blues artists of the 21st century. The son of legendary bluesman Luther Allison, Bernard commands his guitar to create a new style of blues that combines tradition with contemporary sounds such as funk, rock, and R&B. 


Tracks
1-Buzz Me
2-Going Down
3-Bad Love
4-Life Is A Bitch
5-Midnight Creeper
6-Leave My Girl Alone
7-Good Time Woman

General
Complete name         : F:\\.Kent\\Bernard Allison Kentucky Fried Blues.avi
Format                       : AVI
File size                     : 588 MiB
Duration                    : 57mn 50s
Overall bit rate          : 1 421 Kbps
Writing library           : Boilsoft AVI tool build 1/release

Video
ID                               : 0
Format                           : MPEG-4 Visual
Format profile                   : Advanced Simple@L5
Format settings, BVOP            : Yes
Format settings, QPel            : No
Format settings, GMC             : No warppoints
Format settings, Matrix          : Default (H.263)
Codec ID                         : XVID
Duration                         : 57mn 50s
Bit rate                         : 1 249 Kbps
Width x Height            : 640 x 480 pixels
Display aspect ratio             : 4:3
Frame rate                       : 29.970 fps
Color space                      : YUV
Chroma subsampling               : 4:2:0
Bit depth                        : 8 bits
Scan type                        : Progressive
Bits/(Pixel*Frame)               : 0.136
Stream size                      : 517 MiB (88%)
Writing library                  : XviD 1.1.2 (UTC 2006-11-01)

Audio
ID                               : 1
Format                           : MPEG Audio Version 1 Layer 3
Mode                             : Joint stereo
Mode extension             : MS Stereo
Codec ID                       : 55
Codec ID/Hint               : MP3
Duration                         : 57mn 49s
Bit rate mode                  : Constant
Bit rate                         : 160 Kbps
Channel(s)                       : 2 channels
Sampling rate                    : 44.1 KHz
Stream size                      : 66.2 MiB (11%)
Alignment                        : Split accross interleaves
Interleave, duration             : 33 ms (1.00 video frame)
Interleave, preload duration     : 500 ms

